<svg width="20" height="20" viewBox="0 0 20 20" xmlns="http://www.w3.org/2000/svg" xmlns:xlink="http://www.w3.org/1999/xlink">
  <defs>
    <path d="M9.167 14.167h1.666v-5H9.167v5zM10 1.667A8.336 8.336 0 0 0 1.667 10c0 4.6 3.733 8.333 8.333 8.333S18.333 14.6 18.333 10 14.6 1.667 10 1.667zm0 15A6.676 6.676 0 0 1 3.333 10 6.676 6.676 0 0 1 10 3.333 6.676 6.676 0 0 1 16.667 10 6.676 6.676 0 0 1 10 16.667zM9.167 7.5h1.666V5.833H9.167V7.5z" id="team-card-info-path"/>
  </defs>
  <g fill="none" fill-rule="evenodd">
    <mask id="team-card-info-mask" fill="#fff">
      <use xlink:href="#team-card-info-path"/>
    </mask>
    <g mask="url(#team-card-info-mask)" fill="#FFF" fill-opacity=".7">
      <path d="M-10.833-10.833h41.667v41.667h-41.667z"/>
    </g>
  </g>
</svg>
